<?xml version="1.0" encoding="UTF-8"?>
<svg xmlns="http://www.w3.org/2000/svg" xmlns:xlink="http://www.w3.org/1999/xlink" width="48px" height="48px" viewBox="0 0 48 48" version="1.1">
<g id="surface1">
<path style=" stroke:none;fill-rule:evenodd;fill:rgb(100%,100%,100%);fill-opacity:1;" d="M 2 0 L 38 0 L 38 8.164062 C 43.675781 9.117188 48 14.054688 48 20 C 48 23.554688 46.453125 26.746094 44 28.945312 L 44 47.738281 L 40.890625 45.664062 L 36 42.402344 L 31.109375 45.664062 L 28 47.738281 L 28 40 L 2 40 Z M 28 36 L 28 28.945312 C 25.546875 26.746094 24 23.554688 24 20 C 24 14.054688 28.324219 9.117188 34 8.164062 L 34 4 L 6 4 L 6 36 Z M 32 31.316406 L 32 40.261719 L 34.890625 38.335938 L 36 37.597656 L 37.109375 38.335938 L 40 40.261719 L 40 31.316406 C 38.75 31.757812 37.402344 32 36 32 C 34.597656 32 33.25 31.757812 32 31.316406 Z M 36 12 C 31.582031 12 28 15.582031 28 20 C 28 24.417969 31.582031 28 36 28 C 40.417969 28 44 24.417969 44 20 C 44 15.582031 40.417969 12 36 12 Z M 22 18 L 10 18 L 10 14 L 22 14 Z M 10 24 L 20 24 L 20 20 L 10 20 Z M 14 30 L 10 30 L 10 26 L 14 26 Z M 10 12 L 14 12 L 14 8 L 10 8 Z M 10 12 "/>
</g>
</svg>
